<svg xmlns="http://www.w3.org/2000/svg" width="24" height="24" viewBox="0 0 24 24"><path fill="currentColor" d="M12 0a12 12 0 1 0 0 24 12 12 0 0 0 0-24Zm8.8 7.2h-3.5a18.8 18.8 0 0 0-1.7-4.6 9.7 9.7 0 0 1 5.2 4.6ZM12 2.4c1 1.4 1.8 3 2.3 4.8H9.7c.5-1.7 1.3-3.4 2.3-4.8ZM2.7 14.4a9.8 9.8 0 0 1 0-4.8h4.1a19.8 19.8 0 0 0 0 4.8H2.7Zm.5 2.4h3.5c.4 1.6 1 3.2 1.7 4.6a9.6 9.6 0 0 1-5.2-4.6Zm3.5-9.6H3.2a9.6 9.6 0 0 1 5.2-4.6c-.7 1.4-1.3 3-1.7 4.6ZM12 21.6c-1-1.4-1.8-3-2.3-4.8h4.6c-.5 1.7-1.3 3.4-2.3 4.8Zm2.8-7.2H9.2a17.7 17.7 0 0 1 0-4.8h5.6a17.7 17.7 0 0 1 0 4.8Zm.4 7c.7-1.4 1.3-3 1.7-4.6h3.5a9.7 9.7 0 0 1-5.2 4.6Zm2-7a19.8 19.8 0 0 0 0-4.8h4.1a9.8 9.8 0 0 1 0 4.8h-4.1Z"/></svg>
